<svg id="Layer_1" data-name="Layer 1" xmlns="http://www.w3.org/2000/svg" viewBox="0 0 183.73 37.44"><defs><style>.cls-1{fill:#333;}.cls-2{fill:#fd6c6a;}.cls-3{fill:#fff;}</style></defs><title>logo</title><path class="cls-1" d="M48.11,14.49c-.16-.34,0-.61.37-.61h1.43a.52.52,0,0,1,.48.32l1.78,5.86h0L55,13.88a.5.5,0,0,1,.45-.27h.16a.47.47,0,0,1,.45.27l2.81,6.2h0l1.75-5.89c.13-.32.53-.32.82-.32h1a.4.4,0,0,1,.4.61l-3.1,10a.47.47,0,0,1-.48.27h-.11a.48.48,0,0,1-.45-.24l-3.26-7.08h0l-3.23,7.08a.44.44,0,0,1-.42.24h-.13a.46.46,0,0,1-.45-.27Z" transform="translate(-2.27 -0.46)"/><path class="cls-1" d="M69.93,13.61a5.57,5.57,0,1,1-5.36,5.54A5.48,5.48,0,0,1,69.93,13.61Zm0,8.86a3.16,3.16,0,0,0,3-3.31,3,3,0,1,0-6,0A3.16,3.16,0,0,0,69.93,22.47Z" transform="translate(-2.27 -0.46)"/><path class="cls-1" d="M77.94,14.38a.52.52,0,0,1,.5-.5h.77a.5.5,0,0,1,.45.37l.29.9a3.78,3.78,0,0,1,3.1-1.54c1,0,2.23.27,1.94,1l-.64,1.3a.45.45,0,0,1-.64.24,2.42,2.42,0,0,0-.9-.19,2.79,2.79,0,0,0-2.39,1.3V24c0,.45-.29.5-.72.5H78.44a.52.52,0,0,1-.5-.5Z" transform="translate(-2.27 -0.46)"/><path class="cls-1" d="M91.22,13.61a6.38,6.38,0,0,1,2.55.58V6.43a.52.52,0,0,1,.5-.5h1.54a.52.52,0,0,1,.5.5V24a.52.52,0,0,1-.5.5H95c-.24,0-.4-.19-.48-.45l-.21-.77A4.74,4.74,0,0,1,91,24.75c-2.81,0-5-2.52-5-5.57A5.35,5.35,0,0,1,91.22,13.61Zm.05,8.86a2.85,2.85,0,0,0,2.52-1.59V16.56a4.4,4.4,0,0,0-2.31-.64,3.08,3.08,0,0,0-3,3.26A3,3,0,0,0,91.27,22.47Z" transform="translate(-2.27 -0.46)"/><path class="cls-1" d="M99.76,14.38a.52.52,0,0,1,.5-.5H101a.43.43,0,0,1,.42.32l.32.9a5.42,5.42,0,0,1,3.71-1.48c3.24,0,4.43,2.28,4.43,5V24a.52.52,0,0,1-.5.5H107.9a.5.5,0,0,1-.5-.5V18.55c0-1.7-.82-2.63-2.2-2.63a3.51,3.51,0,0,0-2.94,1.59V24c0,.34-.16.5-.61.5h-1.38a.52.52,0,0,1-.5-.5Z" transform="translate(-2.27 -0.46)"/><path class="cls-1" d="M112.94,8a1.52,1.52,0,0,1,1.51-1.56,1.55,1.55,0,1,1,0,3.1A1.52,1.52,0,0,1,112.94,8Zm.29,6.36a.52.52,0,0,1,.5-.5h1.51a.52.52,0,0,1,.5.5V24a.52.52,0,0,1-.5.5h-1.51a.52.52,0,0,1-.5-.5Z" transform="translate(-2.27 -0.46)"/><path class="cls-1" d="M117.76,14.49c-.16-.34,0-.61.4-.61h1.56a.49.49,0,0,1,.48.29L123,20.43h0l2.86-6.26c.13-.29.42-.29.72-.29h1.22c.4,0,.56.27.4.61l-4.69,10a.47.47,0,0,1-.45.27h-.13a.47.47,0,0,1-.45-.27Z" transform="translate(-2.27 -0.46)"/><path class="cls-1" d="M134.73,13.61a4.78,4.78,0,0,1,4.88,4.9,6.46,6.46,0,0,1-.05.72.49.49,0,0,1-.48.45h-7.21a3.07,3.07,0,0,0,3,2.84,4.52,4.52,0,0,0,2.36-.77c.32-.19.5-.29.72,0l.74,1a.41.41,0,0,1-.05.69,6.09,6.09,0,0,1-3.92,1.33,5.3,5.3,0,0,1-5.33-5.57A5.33,5.33,0,0,1,134.73,13.61Zm2.41,4.4a2.51,2.51,0,0,0-2.44-2.36A2.68,2.68,0,0,0,132,18Z" transform="translate(-2.27 -0.46)"/><path class="cls-1" d="M142.16,14.38a.52.52,0,0,1,.5-.5h.77a.5.5,0,0,1,.45.37l.29.9a3.78,3.78,0,0,1,3.1-1.54c1,0,2.23.27,1.93,1l-.64,1.3a.45.45,0,0,1-.64.24,2.42,2.42,0,0,0-.9-.19,2.79,2.79,0,0,0-2.39,1.3V24c0,.45-.29.5-.72.5h-1.27a.52.52,0,0,1-.5-.5Z" transform="translate(-2.27 -0.46)"/><path class="cls-1" d="M150.43,23.11l.56-1a.46.46,0,0,1,.66-.13,5.49,5.49,0,0,0,2.47.69c.8,0,1.3-.32,1.3-.9s-.58-1.06-2-1.72c-1.64-.72-3-1.72-3-3.47,0-1.33,1.09-2.92,3.63-2.92a5.94,5.94,0,0,1,3.13.82.59.59,0,0,1,.21.77l-.48.9a.56.56,0,0,1-.69.21,6.06,6.06,0,0,0-2.17-.56c-.9,0-1.19.4-1.19.8,0,.69.66,1,1.7,1.43,1.93.85,3.53,1.67,3.53,3.66,0,1.64-1.56,3.1-3.92,3.1a5.56,5.56,0,0,1-3.5-1.09A.45.45,0,0,1,150.43,23.11Z" transform="translate(-2.27 -0.46)"/><path class="cls-1" d="M160.27,8a1.52,1.52,0,0,1,1.51-1.56,1.55,1.55,0,1,1,0,3.1A1.52,1.52,0,0,1,160.27,8Zm.29,6.36a.52.52,0,0,1,.5-.5h1.51a.52.52,0,0,1,.5.5V24a.52.52,0,0,1-.5.5h-1.51a.52.52,0,0,1-.5-.5Z" transform="translate(-2.27 -0.46)"/><path class="cls-1" d="M167.21,16.08H166.1a.5.5,0,0,1-.5-.5V14.38a.49.49,0,0,1,.5-.5h1.11V10.94a.52.52,0,0,1,.5-.5l1.51,0a.5.5,0,0,1,.48.5v3h2.7a.49.49,0,0,1,.5.5v1.19a.5.5,0,0,1-.5.5h-2.7v5.25c0,.9.34,1.06.85,1.06a4.33,4.33,0,0,0,1.62-.48.4.4,0,0,1,.61.24l.48,1.17A.44.44,0,0,1,173,24a8.13,8.13,0,0,1-3.1.8c-2.1,0-2.7-1.27-2.7-3.16Z" transform="translate(-2.27 -0.46)"/><path class="cls-1" d="M174.27,14.57a.47.47,0,0,1,.45-.69h1.75a.58.58,0,0,1,.45.29l3.29,7.05h0l3.18-7.05a.53.53,0,0,1,.56-.29h1.51a.45.45,0,0,1,.45.69l-8.11,17.55a.53.53,0,0,1-.45.32h-1.59a.47.47,0,0,1-.45-.72l3.55-7.61Z" transform="translate(-2.27 -0.46)"/><rect class="cls-2" width="37.44" height="37.44"/><polygon class="cls-3" points="17.41 9.64 20.85 9.54 25.33 6.68 28.17 14.85 31.68 24.97 23.06 31.39 12.32 31.7 5.99 13.49 22.27 13.02 25.7 22.91 21.26 26.21 18.58 26.29 15.73 26.37 12.51 17.1 10.55 17.16 14.38 28.18 18.7 28.05 21.87 27.96 27.88 23.49 23.61 11.21 3.43 11.79 10.97 33.51 23.67 33.14 33.86 25.56 29.93 14.24 26.34 3.93 17.41 9.64"/><rect class="cls-1" x="45.57" y="26.18" width="15.74" height="1.66"/></svg>